<svg viewBox="0 0 520 520" xmlns="http://www.w3.org/2000/svg" role="img" aria-label="Football player silhouette">
  <defs>
    <linearGradient id="bg" x1="0" y1="0" x2="1" y2="1">
      <stop offset="0%" stop-color="#05487F"/>
      <stop offset="100%" stop-color="#0A5FA3"/>
    </linearGradient>
    <linearGradient id="accent" x1="0" y1="0" x2="1" y2="1">
      <stop offset="0%" stop-color="#FC9005"/>
      <stop offset="100%" stop-color="#FFAB3D"/>
    </linearGradient>
  </defs>
  <rect x="0" y="0" width="520" height="520" rx="48" fill="url(#bg)"/>
  <circle cx="420" cy="110" r="70" fill="#ffffff" opacity="0.08"/>
  <circle cx="95" cy="420" r="95" fill="#ffffff" opacity="0.06"/>

  <circle cx="260" cy="125" r="48" fill="#ffffff"/>
  <path d="M200 185c28-10 92-10 120 0l28 84-54 46 22 118h-42l-14-80-14 80h-42l22-118-54-46 28-84z" fill="#ffffff"/>
  <path d="M200 185c28-10 92-10 120 0l-60 86-60-86z" fill="url(#accent)"/>

  <circle cx="126" cy="358" r="58" fill="#ffffff"/>
  <path d="M126 322l20 14-8 24h-24l-8-24 20-14z" fill="url(#accent)"/>
  <path d="M88 372h76M100 334l52 46M152 334l-52 46" stroke="#05487F" stroke-width="8" stroke-linecap="round" opacity="0.2"/>

  <path d="M62 462c102 28 294 28 396 0" stroke="#FC9005" stroke-width="10" stroke-linecap="round" opacity="0.9"/>
</svg>
